<?xml version="1.0" encoding="UTF-8" standalone="no"?>
<!DOCTYPE svg PUBLIC "-//W3C//DTD SVG 1.1//EN" "http://www.w3.org/Graphics/SVG/1.1/DTD/svg11.dtd">
<svg width="100%" height="100%" viewBox="0 0 1014 94" version="1.1" xmlns="http://www.w3.org/2000/svg" xmlns:xlink="http://www.w3.org/1999/xlink" xml:space="preserve" xmlns:serif="http://www.serif.com/" style="fill-rule:evenodd;clip-rule:evenodd;stroke-linejoin:round;stroke-miterlimit:2;">
    <g transform="matrix(1,0,0,1,-82.4622,-678.36)">
        <path d="M536.417,695.245C536.417,695.245 537.335,683.7 539.225,681.286C541.115,678.871 546.16,677.343 547.797,679.156C549.434,680.968 545.684,690.766 545.684,693.819C545.684,696.871 547.279,698.145 548.482,698.145C549.684,698.145 547.907,701.034 550.282,701.034C552.657,701.034 555.841,698.008 558.049,697.657C559.361,697.448 560.683,697.024 562.666,696.634C564.65,696.245 564.931,695.428 564.931,695.428C564.931,695.428 572.772,693.678 581.471,698.157C590.17,702.636 594.132,704.072 597.794,709.869C601.455,715.665 603.981,731.911 604.014,737.611C604.046,743.31 603.802,744.994 600,745.535C596.198,746.077 584.259,743.911 581.008,744.568C577.757,745.225 570.451,746.109 566.291,745.616C562.131,745.124 558.241,745.928 557.059,744.064C556.227,742.754 555.881,741.333 557.926,740.487C559.627,739.783 566.41,742.005 567.155,739.585C567.899,737.165 564.467,736.135 564.467,736.135C564.467,736.135 556.376,734.218 553.248,737.002C550.119,739.786 548.937,743.564 548.937,743.564C548.937,743.564 540.475,747.564 540.893,744.409C541.31,741.254 544.481,741.612 544.481,741.612L546.169,736.713C546.169,736.713 541.866,734.449 538.503,726.777C535.14,719.104 535.296,716.549 535.296,716.549L529.902,716.501L530.509,721.14C530.509,721.14 527.787,716.603 526.156,716.014C524.525,715.425 523.27,714.387 523.374,711.854C523.478,709.321 525.401,704.268 528.151,702.134C530.901,700.001 536.417,695.245 536.417,695.245Z"/>
    </g>
    <g transform="matrix(1,0,0,1,-82.4622,-678.36)">
        <path d="M82.462,771.507C82.462,771.507 146.414,765.855 157.626,766.564C168.839,767.272 255.054,764.198 263.207,762.453C271.36,760.707 299.632,757.606 311.232,757.638C322.833,757.67 367.269,752.743 375.146,753.254C383.024,753.766 386.131,753.764 396.928,752.667C407.725,751.57 436.937,753.926 449.749,751.601C462.56,749.276 471.371,747.086 482.79,745.76C494.209,744.434 532.644,744.358 539.76,744.76C546.876,745.161 554.162,744.745 561.561,744.764C568.96,744.784 597.591,743.509 602.863,743.034C608.136,742.559 623.996,739.433 631.553,739.41C639.11,739.387 663.769,735.133 678.805,736.828C693.841,738.523 734.661,735.951 749.303,734.069C763.946,732.187 799.521,728.176 810.794,729.34C822.067,730.505 868.586,725.698 874.471,725.698C880.355,725.698 894.425,723.929 902.359,724.071C910.293,724.214 911.284,726.795 928.897,726.345C946.51,725.895 960.599,719.09 971.856,719C983.113,718.911 987.062,718.999 1000.62,718.702C1014.18,718.406 1025.67,718.327 1036.46,717.324C1047.25,716.32 1061.33,716.78 1067.6,715.294C1073.86,713.808 1076.15,713.848 1084.66,712.06C1093.16,710.271 1095.54,714.685 1095.54,714.685L1095.54,771.507L82.462,771.507Z"/>
    </g>
</svg>
