<svg xmlns="http://www.w3.org/2000/svg" viewBox="0 0 122.66 35.97"><defs><style>.cls-1{fill:#fff;}</style></defs><title>Asset 5</title><g id="Layer_2" data-name="Layer 2"><g id="Layer_1-2" data-name="Layer 1"><path class="cls-1" d="M0,25.29V8.54H2.75l6.16,14,6-14h2.64V25.29H15.64V11.55l-6,13.74H8L1.93,11.55V25.29Z"/><path class="cls-1" d="M19.78,21.58c0-2.52,1.67-3.79,5-3.79A21.81,21.81,0,0,1,28,18V16.87c0-1.42-1.11-2.12-3.32-2.12a13.74,13.74,0,0,0-3.89.58V13.58A13.42,13.42,0,0,1,24.67,13c3.66,0,5.48,1.27,5.48,3.82v8.48H28.93l-.75-1.21a7.1,7.1,0,0,1-4,1.21C21.25,25.29,19.78,24.06,19.78,21.58Zm5-2c-1.88,0-2.82.67-2.82,2s.74,2,2.23,2A6.06,6.06,0,0,0,28,22.34V19.79A21.81,21.81,0,0,0,24.77,19.55Z"/><path class="cls-1" d="M43.1,25.29c0,3-1.88,4.46-5.66,4.46a12.76,12.76,0,0,1-4-.59V27.4a13.09,13.09,0,0,0,4.06.59q3.47,0,3.47-2.7v-.58a7.61,7.61,0,0,1-3,.58q-5.84,0-5.84-6.22T38.28,13a23.11,23.11,0,0,1,4.82.5ZM40.94,15.08a11.34,11.34,0,0,0-2.76-.29c-2.62,0-3.92,1.42-3.92,4.26s1.23,4.37,3.71,4.37a6.66,6.66,0,0,0,3-.63Z"/><path class="cls-1" d="M47.4,25.29H45.15L52.27,8.54h2.4l7.15,16.75h-2.4L57.25,20H51.71l.59-1.76h4.22l-3.13-7.59Z"/><path class="cls-1" d="M61.12,16.94q0-8.52,8.41-8.52t8.29,8.52q0,8.47-8.29,8.47T61.12,16.94Zm8.41,6.71q6,0,6-6.78t-6-6.69q-6.12,0-6.13,6.69T69.53,23.65Z"/><path class="cls-1" d="M92.11,18.26V20H80.39V18.26Z"/><path class="cls-1" d="M108.09,15.91,122.66,0,106.75,14.58a4.13,4.13,0,0,1,.82.64A4.3,4.3,0,0,1,108.09,15.91Zm-6.18-.81a3.52,3.52,0,0,1,.69-.53L86.69,0l14.58,15.92A3.63,3.63,0,0,1,101.91,15.1Zm5.53,5.78a4.23,4.23,0,0,1-.68.52L122.66,36,108.08,20.06A4.13,4.13,0,0,1,107.44,20.88Zm-6.18-.81L86.69,36,102.6,21.39a4.13,4.13,0,0,1-.82-.64A4.23,4.23,0,0,1,101.26,20.07Z"/><circle class="cls-1" cx="104.68" cy="17.99" r="2.28"/></g></g></svg>